<svg width="28" height="28" viewBox="0 0 28 28" fill="none" xmlns="http://www.w3.org/2000/svg">
<g clip-path="url(#clip0_37_254)">
<path d="M14 26.25C20.7655 26.25 26.25 20.7655 26.25 14C26.25 7.23451 20.7655 1.75 14 1.75C7.23451 1.75 1.75 7.23451 1.75 14C1.75 20.7655 7.23451 26.25 14 26.25Z" fill="#F3F3F3"/>
<path d="M3.9376 21.875C3.84613 21.8756 3.75677 21.8476 3.68207 21.7948C3.60738 21.742 3.5511 21.6671 3.52117 21.5807C3.49123 21.4943 3.48914 21.4006 3.51518 21.3129C3.54122 21.2253 3.59409 21.1479 3.66635 21.0919L22.0413 6.65437C22.133 6.58243 22.2495 6.54985 22.3652 6.5638C22.4809 6.57775 22.5863 6.63708 22.6582 6.72875C22.7302 6.82041 22.7627 6.9369 22.7488 7.05259C22.7348 7.16827 22.6755 7.27368 22.5838 7.34562C2.89635 22.8112 4.16947 21.875 3.9376 21.875Z" fill="#D9D9D9"/>
<path d="M24.0624 21.875C23.8305 21.875 24.9637 22.7019 5.41615 7.34562C5.32449 7.27368 5.26516 7.16827 5.25121 7.05259C5.23726 6.9369 5.26984 6.82041 5.34178 6.72875C5.41372 6.63708 5.51913 6.57775 5.63481 6.5638C5.7505 6.54985 5.86699 6.58243 5.95865 6.65437L24.3337 21.0919C24.4059 21.1479 24.4588 21.2253 24.4848 21.3129C24.5109 21.4006 24.5088 21.4943 24.4788 21.5807C24.4489 21.6671 24.3926 21.742 24.3179 21.7948C24.2432 21.8476 24.1539 21.8756 24.0624 21.875Z" fill="#D9D9D9"/>
<path d="M7.4375 2.1875L3.9375 3.9375L0.4375 2.1875L3.9375 0.4375L7.4375 2.1875Z" fill="#0049BE"/>
<path d="M7.4375 2.1875V6.5625L3.9375 8.3125V3.9375L7.4375 2.1875Z" fill="#0049BE"/>
<path d="M3.9375 3.9375V8.3125L0.4375 6.5625V2.1875L3.9375 3.9375Z" fill="#0049BE"/>
<path d="M7.63438 1.79833L4.13438 0.0483259C4.07331 0.0175546 4.00588 0.00152588 3.9375 0.00152588C3.86912 0.00152588 3.80169 0.0175546 3.74063 0.0483259L0.240625 1.79833C0.168475 1.83468 0.107801 1.89031 0.0653289 1.95903C0.0228566 2.02776 0.000244871 2.10691 0 2.1877L0 6.5627C0.000244871 6.64349 0.0228566 6.72264 0.0653289 6.79137C0.107801 6.86009 0.168475 6.91572 0.240625 6.95208L3.74063 8.70208C3.79529 8.72812 3.85507 8.74163 3.91562 8.74163C3.97618 8.74163 4.03596 8.72812 4.09063 8.70208L7.59063 6.95208C7.67096 6.92217 7.74074 6.86932 7.79129 6.8001C7.84185 6.73088 7.87096 6.64832 7.875 6.5627V2.1877C7.87475 2.10691 7.85214 2.02776 7.80967 1.95903C7.7672 1.89031 7.70653 1.83468 7.63438 1.79833ZM3.9375 0.927701L6.4575 2.1877L3.9375 3.4477L1.4175 2.1877L3.9375 0.927701ZM3.5 7.60395L0.875 6.29145V2.89645L3.5 4.20895V7.60395ZM7 6.29145L4.375 7.60395V4.20895L7 2.89645V6.29145Z" fill="#0B3882"/>
<path d="M27.5625 2.1875L24.0625 3.9375L20.5625 2.1875L24.0625 0.4375L27.5625 2.1875Z" fill="#0049BE"/>
<path d="M27.5625 2.1875V6.5625L24.0625 8.3125V3.9375L27.5625 2.1875Z" fill="#0049BE"/>
<path d="M24.0625 3.9375V8.3125L20.5625 6.5625V2.1875L24.0625 3.9375Z" fill="#0049BE"/>
<path d="M27.7594 1.79811L24.2594 0.0481123C24.1983 0.017341 24.1309 0.00131226 24.0625 0.00131226C23.9941 0.00131226 23.9267 0.017341 23.8656 0.0481123L20.3656 1.79811C20.2935 1.83447 20.2328 1.89009 20.1903 1.95882C20.1479 2.02755 20.1252 2.1067 20.125 2.18749V6.56249C20.1252 6.64328 20.1479 6.72243 20.1903 6.79115C20.2328 6.85988 20.2935 6.91551 20.3656 6.95186L23.8875 8.70186C23.9422 8.72791 24.002 8.74142 24.0625 8.74142C24.123 8.74142 24.1828 8.72791 24.2375 8.70186L27.7594 6.95186C27.8315 6.91551 27.8922 6.85988 27.9347 6.79115C27.9771 6.72243 27.9998 6.64328 28 6.56249V2.18749C27.9998 2.1067 27.9771 2.02755 27.9347 1.95882C27.8922 1.89009 27.8315 1.83447 27.7594 1.79811ZM24.0625 0.927487L26.5825 2.18749L24.0625 3.44749L21.5425 2.18749L24.0625 0.927487ZM23.625 7.60374L21 6.29124V2.89624L23.625 4.20874V7.60374ZM27.125 6.29124L24.5 7.60374V4.20874L27.125 2.89624V6.29124Z" fill="#0B3882"/>
<path d="M7.4375 21.4375L3.9375 23.1875L0.4375 21.4375L3.9375 19.6875L7.4375 21.4375Z" fill="#0049BE"/>
<path d="M7.4375 21.4375V25.8125L3.9375 27.5625V23.1875L7.4375 21.4375Z" fill="#0049BE"/>
<path d="M3.9375 23.1875V27.5625L0.4375 25.8125V21.4375L3.9375 23.1875Z" fill="#0049BE"/>
<path d="M7.63438 21.0481L4.13438 19.2981C4.07331 19.2673 4.00588 19.2513 3.9375 19.2513C3.86912 19.2513 3.80169 19.2673 3.74063 19.2981L0.240625 21.0481C0.168475 21.0845 0.107801 21.1401 0.0653289 21.2088C0.0228566 21.2775 0.000244871 21.3567 0 21.4375L0 25.8125C0.000244871 25.8933 0.0228566 25.9724 0.0653289 26.0412C0.107801 26.1099 0.168475 26.1655 0.240625 26.2019L3.74063 27.9519C3.79529 27.9779 3.85507 27.9914 3.91562 27.9914C3.97618 27.9914 4.03596 27.9779 4.09063 27.9519L7.59063 26.2019C7.67096 26.172 7.74074 26.1191 7.79129 26.0499C7.84185 25.9807 7.87096 25.8981 7.875 25.8125V21.4375C7.87475 21.3567 7.85214 21.2775 7.80967 21.2088C7.7672 21.1401 7.70653 21.0845 7.63438 21.0481ZM3.9375 20.1775L6.4575 21.4375L3.9375 22.6975L1.4175 21.4375L3.9375 20.1775ZM3.5 26.8537L0.875 25.5412V22.1462L3.5 23.4587V26.8537ZM7 25.5412L4.375 26.8537V23.4587L7 22.1462V25.5412Z" fill="#0B3882"/>
<path d="M24.0625 19.6875L20.5625 21.4375V25.8125L24.0625 27.5625L27.5625 25.8125V21.4375L24.0625 19.6875Z" fill="#0049BE"/>
<path d="M27.7594 21.0481L24.2594 19.2981C24.1983 19.2673 24.1309 19.2513 24.0625 19.2513C23.9941 19.2513 23.9267 19.2673 23.8656 19.2981L20.3656 21.0481C20.2935 21.0845 20.2328 21.1401 20.1903 21.2088C20.1479 21.2775 20.1252 21.3567 20.125 21.4375V25.8125C20.1252 25.8933 20.1479 25.9724 20.1903 26.0412C20.2328 26.1099 20.2935 26.1655 20.3656 26.2019L23.8875 27.9519C23.9422 27.9779 24.002 27.9914 24.0625 27.9914C24.123 27.9914 24.1828 27.9779 24.2375 27.9519L27.7594 26.2019C27.8315 26.1655 27.8922 26.1099 27.9347 26.0412C27.9771 25.9724 27.9998 25.8933 28 25.8125V21.4375C27.9998 21.3567 27.9771 21.2775 27.9347 21.2088C27.8922 21.1401 27.8315 21.0845 27.7594 21.0481ZM24.0625 20.1731L26.5825 21.4375L24.0625 22.6975L21.5425 21.4375L24.0625 20.1731ZM23.625 26.8537L21 25.5412V22.1462L23.625 23.4587V26.8537ZM27.125 25.5412L24.5 26.8537V23.4587L27.125 22.1462V25.5412Z" fill="#0B3882"/>
<path d="M14 7.4375L7.875 10.0625V17.9375L14 20.5625L20.125 17.9375V10.0625L14 7.4375Z" fill="#0049BE"/>
<path d="M20.5625 10.0625C20.5624 9.97663 20.5371 9.89267 20.4896 9.8211C20.4422 9.74953 20.3747 9.6935 20.2956 9.66001L14.1706 7.03501C14.1166 7.01215 14.0586 7.00037 14 7.00037C13.9414 7.00037 13.8834 7.01215 13.8294 7.03501L7.70438 9.66001C7.6253 9.6935 7.55783 9.74953 7.51037 9.8211C7.46291 9.89267 7.43757 9.97663 7.4375 10.0625V17.9375C7.43757 18.0234 7.46291 18.1073 7.51037 18.1789C7.55783 18.2505 7.6253 18.3065 7.70438 18.34C14.42 21.2188 13.9125 21.0569 14.1531 20.965L20.2781 18.34C20.3605 18.3093 20.4317 18.2544 20.4824 18.1826C20.5331 18.1108 20.561 18.0254 20.5625 17.9375V10.0625ZM14 7.91438L19.0138 10.0625L14 12.2106L8.98625 10.0625L14 7.91438ZM8.3125 10.7275L13.5625 12.9763V19.8975L8.3125 17.6488V10.7275ZM19.6875 17.6488L14.4375 19.8975V12.9763L19.6875 10.7275V17.6488Z" fill="#0B3882"/>
</g>
<defs>
<clipPath id="clip0_37_254">
<rect width="28" height="28" fill="white"/>
</clipPath>
</defs>
</svg>
