<svg width="21" height="25" viewBox="0 0 21 25" fill="none" xmlns="http://www.w3.org/2000/svg">
<path d="M1.21875 24.3125C0.994974 24.3125 0.780363 24.2236 0.622129 24.0654C0.463895 23.9071 0.375 23.6925 0.375 23.4688C0.375 23.245 0.463895 23.0304 0.622129 22.8721C0.780363 22.7139 0.994974 22.625 1.21875 22.625H2.90625V20.9375C2.9059 19.5048 3.31089 18.1012 4.07442 16.8888C4.83796 15.6765 5.92888 14.7049 7.22119 14.0862C7.71056 13.8517 7.96875 13.4501 7.96875 13.0906V11.9094C7.96875 11.5499 7.70888 11.1483 7.22119 10.9137C5.92888 10.2951 4.83796 9.32353 4.07442 8.11119C3.31089 6.89885 2.9059 5.49524 2.90625 4.0625V2.375H1.21875C0.994974 2.375 0.780363 2.28611 0.622129 2.12787C0.463895 1.96964 0.375 1.75503 0.375 1.53125C0.375 1.30747 0.463895 1.09286 0.622129 0.934629C0.780363 0.776395 0.994974 0.6875 1.21875 0.6875H19.7812C20.005 0.6875 20.2196 0.776395 20.3779 0.934629C20.5361 1.09286 20.625 1.30747 20.625 1.53125C20.625 1.75503 20.5361 1.96964 20.3779 2.12787C20.2196 2.28611 20.005 2.375 19.7812 2.375H18.0938V4.0625C18.0941 5.49524 17.6891 6.89885 16.9256 8.11119C16.162 9.32353 15.0711 10.2951 13.7788 10.9137C13.2894 11.1483 13.0312 11.5499 13.0312 11.9094V13.0906C13.0312 13.4501 13.2911 13.8517 13.7788 14.0862C15.0711 14.7049 16.162 15.6765 16.9256 16.8888C17.6891 18.1012 18.0941 19.5048 18.0938 20.9375V22.625H19.7812C20.005 22.625 20.2196 22.7139 20.3779 22.8721C20.5361 23.0304 20.625 23.245 20.625 23.4688C20.625 23.6925 20.5361 23.9071 20.3779 24.0654C20.2196 24.2236 20.005 24.3125 19.7812 24.3125H1.21875ZM4.59375 2.375V4.0625C4.59375 4.96869 4.79625 5.82594 5.16244 6.59375H15.8376C16.2021 5.82594 16.4062 4.96869 16.4062 4.0625V2.375H4.59375ZM9.65625 13.0906C9.65625 14.2736 8.84962 15.1764 7.95019 15.6084C6.94493 16.0895 6.09632 16.8452 5.50239 17.7882C4.90845 18.7312 4.59344 19.823 4.59375 20.9375C4.59375 20.9375 6.05512 18.7454 9.65625 18.44V13.0906ZM11.3438 13.0906V18.44C14.9449 18.7454 16.4062 20.9375 16.4062 20.9375C16.4066 19.823 16.0915 18.7312 15.4976 17.7882C14.9037 16.8452 14.0551 16.0895 13.0498 15.6084C12.1504 15.1764 11.3438 14.2736 11.3438 13.0906Z" fill="url(#paint0_linear_37_253)"/>
<defs>
<linearGradient id="paint0_linear_37_253" x1="0.375" y1="0.6875" x2="22.7867" y2="2.95602" gradientUnits="userSpaceOnUse">
<stop stop-color="#0A2A5E"/>
<stop offset="1" stop-color="#0049BE"/>
</linearGradient>
</defs>
</svg>
