<svg width="24" height="28" viewBox="0 0 24 28" fill="none" xmlns="http://www.w3.org/2000/svg">
<path fill-rule="evenodd" clip-rule="evenodd" d="M11.2122 2.74551L3.46521 5.42235C2.93797 5.60452 2.58234 6.11598 2.58234 6.69208V13.8362C2.58234 16.5474 3.89241 18.8624 5.79002 20.8089C7.69173 22.7595 9.98111 24.1206 11.397 24.8467C11.5437 24.922 11.6974 24.922 11.8441 24.8467C13.26 24.1206 15.5493 22.7595 17.451 20.8089C19.3487 18.8624 20.6587 16.5474 20.6587 13.8362V6.69208C20.6587 6.11598 20.3031 5.60452 19.7759 5.42235L12.0288 2.74551C11.7638 2.65394 11.4773 2.65394 11.2122 2.74551ZM2.6486 2.88288C1.06688 3.42941 0 4.96379 0 6.69208V13.8362C0 21.2002 7.17916 25.6701 10.2518 27.246C11.1202 27.6914 12.1208 27.6914 12.9893 27.246C16.0619 25.6701 23.2411 21.2002 23.2411 13.8362V6.69208C23.2411 4.96379 22.1742 3.42941 20.5925 2.88288L12.8454 0.206049C12.0503 -0.0686835 11.1907 -0.0686827 10.3956 0.20605L2.6486 2.88288Z" fill="url(#paint0_linear_37_101)"/>
<defs>
<linearGradient id="paint0_linear_37_101" x1="0" y1="0" x2="25.7308" y2="2.56053" gradientUnits="userSpaceOnUse">
<stop stop-color="#0A2A5E"/>
<stop offset="1" stop-color="#0049BE"/>
</linearGradient>
</defs>
</svg>
