<svg width="28" height="28" viewBox="0 0 28 28" fill="none" xmlns="http://www.w3.org/2000/svg">
<path d="M9.3335 15.1667V5.25C9.3335 4.78587 9.51787 4.34075 9.84606 4.01256C10.1742 3.68437 10.6194 3.5 11.0835 3.5C11.5476 3.5 11.9927 3.68437 12.3209 4.01256C12.6491 4.34075 12.8335 4.78587 12.8335 5.25V14M12.8335 13.4167V11.0833C12.8335 10.6192 13.0179 10.1741 13.3461 9.8459C13.6742 9.51771 14.1194 9.33333 14.5835 9.33333C15.0476 9.33333 15.4927 9.51771 15.8209 9.8459C16.1491 10.1741 16.3335 10.6192 16.3335 11.0833V14M16.3335 12.25C16.3335 11.7859 16.5179 11.3408 16.8461 11.0126C17.1742 10.6844 17.6194 10.5 18.0835 10.5C18.5476 10.5 18.9927 10.6844 19.3209 11.0126C19.6491 11.3408 19.8335 11.7859 19.8335 12.25V14" stroke="url(#paint0_linear_37_281)" stroke-width="2" stroke-linecap="round" stroke-linejoin="round"/>
<path d="M19.8333 13.4166C19.8333 12.9525 20.0177 12.5074 20.3459 12.1792C20.6741 11.851 21.1192 11.6666 21.5833 11.6666C22.0475 11.6666 22.4926 11.851 22.8208 12.1792C23.149 12.5074 23.3333 12.9525 23.3333 13.4166V18.6666C23.3333 20.5232 22.5958 22.3036 21.2831 23.6164C19.9703 24.9292 18.1898 25.6666 16.3333 25.6666H14H14.2427C13.0834 25.6668 11.9422 25.3791 10.9216 24.8293C9.90101 24.2795 9.03293 23.4848 8.39533 22.5166L8.16667 22.1666C7.80267 21.6078 6.52517 19.3806 4.333 15.484C4.10952 15.0868 4.04983 14.618 4.16661 14.1775C4.28339 13.7369 4.56744 13.3593 4.95833 13.125C5.37469 12.8752 5.86258 12.7716 6.34452 12.8308C6.82646 12.89 7.2748 13.1085 7.61833 13.4516L9.33333 15.1666M5.83333 3.49998L4.66667 2.33331M4.66667 8.16665H3.5M16.3333 3.49998L17.5 2.33331M17.5 6.99998H18.6667" stroke="url(#paint1_linear_37_281)" stroke-width="2" stroke-linecap="round" stroke-linejoin="round"/>
<defs>
<linearGradient id="paint0_linear_37_281" x1="9.3335" y1="3.5" x2="20.9423" y2="4.7338" gradientUnits="userSpaceOnUse">
<stop stop-color="#0A2A5E"/>
<stop offset="1" stop-color="#0049BE"/>
</linearGradient>
<linearGradient id="paint1_linear_37_281" x1="3.5" y1="2.33331" x2="25.4543" y2="4.53701" gradientUnits="userSpaceOnUse">
<stop stop-color="#0A2A5E"/>
<stop offset="1" stop-color="#0049BE"/>
</linearGradient>
</defs>
</svg>
