<svg width="28" height="28" viewBox="0 0 28 28" fill="none" xmlns="http://www.w3.org/2000/svg">
<g clip-path="url(#clip0_37_278)">
<path d="M21 0H8.75V10.5H9.975L10.325 11.725L10.5 11.9V1.75H19.25V8.75H26.25V24.5H15.75L16.275 25.375L15.4 26.25H28V7L21 0ZM21 7V1.75L26.25 7H21ZM9.625 20.125C9.625 20.5891 9.44063 21.0342 9.11244 21.3624C8.78425 21.6906 8.33913 21.875 7.875 21.875C7.41087 21.875 6.96575 21.6906 6.63756 21.3624C6.30937 21.0342 6.125 20.5891 6.125 20.125C6.125 19.6609 6.30937 19.2158 6.63756 18.8876C6.96575 18.5594 7.41087 18.375 7.875 18.375C8.33913 18.375 8.78425 18.5594 9.11244 18.8876C9.44063 19.2158 9.625 19.6609 9.625 20.125Z" fill="url(#paint0_linear_37_278)" stroke="url(#paint1_linear_37_278)"/>
<path d="M13.825 21.7L15.75 21V19.25L13.825 18.55C13.65 18.025 13.475 17.5 13.125 16.975L14 15.225L12.775 14L11.025 14.875C10.5 14.525 9.975 14.35 9.45 14.175L8.75 12.25H7L6.3 14.175C5.775 14.35 5.25 14.525 4.725 14.875L2.975 14L1.75 15.225L2.625 17.15C2.275 17.675 2.1 18.2 1.925 18.725L0 19.25V21L1.925 21.7C2.1 22.225 2.275 22.75 2.625 23.275L1.75 25.025L2.975 26.25L4.9 25.375C5.425 25.725 5.95 25.9 6.475 26.075L7 28H8.75L9.45 26.075C9.975 25.9 10.5 25.725 11.025 25.375L12.775 26.25L14 25.025L13.125 23.1C13.475 22.75 13.65 22.225 13.825 21.7ZM7.875 23.625C5.95 23.625 4.375 22.05 4.375 20.125C4.375 18.2 5.95 16.625 7.875 16.625C9.8 16.625 11.375 18.2 11.375 20.125C11.375 22.05 9.8 23.625 7.875 23.625Z" fill="url(#paint2_linear_37_278)"/>
</g>
<defs>
<linearGradient id="paint0_linear_37_278" x1="6.125" y1="0" x2="30.3486" y2="2.38381" gradientUnits="userSpaceOnUse">
<stop stop-color="#0A2A5E"/>
<stop offset="1" stop-color="#0049BE"/>
</linearGradient>
<linearGradient id="paint1_linear_37_278" x1="6.125" y1="0" x2="30.3486" y2="2.38381" gradientUnits="userSpaceOnUse">
<stop stop-color="#0A2A5E"/>
<stop offset="1" stop-color="#0049BE"/>
</linearGradient>
<linearGradient id="paint2_linear_37_278" x1="0" y1="12.25" x2="17.3677" y2="14.301" gradientUnits="userSpaceOnUse">
<stop stop-color="#0A2A5E"/>
<stop offset="1" stop-color="#0049BE"/>
</linearGradient>
<clipPath id="clip0_37_278">
<rect width="28" height="28" fill="white"/>
</clipPath>
</defs>
</svg>
