<svg width="197" height="37" viewBox="0 0 197 37" fill="none" xmlns="http://www.w3.org/2000/svg">
<path d="M50.274 19.4025C49.6203 19.9546 49.1426 20.6447 48.8409 21.4729C48.5392 22.3011 48.3884 23.1292 48.3884 23.9574C48.3884 24.7354 48.5015 25.4632 48.7278 26.1407C48.9792 26.7932 49.3186 27.3704 49.746 27.8724C50.1985 28.3492 50.7391 28.7382 51.3676 29.0393C52.0213 29.3154 52.7504 29.4534 53.5549 29.4534C54.6862 29.4534 55.629 29.1522 56.3833 28.5499C57.1626 27.9476 57.5523 27.0442 57.5523 25.8396C57.5523 24.5095 57.2758 23.3049 56.7227 22.2258C56.1696 21.1467 55.4782 20.1428 54.6485 19.2143C53.8189 18.2857 52.9264 17.4074 51.971 16.5792C51.0156 15.7511 50.1231 14.9229 49.2935 14.0947C48.4638 13.2415 47.7724 12.3631 47.2193 11.4597C46.6662 10.5562 46.3897 9.56493 46.3897 8.48581C46.3897 7.45688 46.6034 6.59107 47.0308 5.88839C47.4582 5.16061 48.0238 4.57085 48.7278 4.11913C49.4317 3.6674 50.2111 3.34116 51.0659 3.14039C51.9459 2.93962 52.8384 2.83924 53.7434 2.83924C54.548 2.83924 55.3399 2.92708 56.1193 3.10275C56.9238 3.27842 57.6403 3.56702 58.2688 3.96855C58.8974 4.34499 59.4002 4.85945 59.7773 5.51195C60.1796 6.13934 60.3807 6.91732 60.3807 7.84586C60.3807 8.44816 60.2801 9.05046 60.079 9.65276C59.8779 10.23 59.5887 10.7695 59.2116 11.2714C58.8597 11.7483 58.4197 12.1498 57.8917 12.476C57.3889 12.7772 56.8107 12.9529 56.157 13.0031L56.1193 12.8901C56.6472 12.4133 56.9992 11.7859 57.1752 11.0079C57.3763 10.2049 57.4769 9.46455 57.4769 8.78696C57.4769 8.08427 57.3889 7.39414 57.2129 6.71655C57.0369 6.03896 56.7604 5.43666 56.3833 4.90965C56.0313 4.35754 55.5662 3.91836 54.9879 3.59212C54.4348 3.24077 53.756 3.0651 52.9515 3.0651C52.5241 3.0651 52.0841 3.10275 51.6316 3.17803C51.179 3.25332 50.7642 3.39135 50.3871 3.59212C50.0351 3.76779 49.7334 4.03129 49.482 4.38264C49.2558 4.70888 49.1426 5.13551 49.1426 5.66252C49.1426 6.81693 49.4317 7.89605 50.01 8.89989C50.5882 9.90372 51.3048 10.8825 52.1595 11.8361C53.0143 12.7646 53.9446 13.6806 54.9502 14.5841C55.981 15.4625 56.9238 16.3659 57.7786 17.2945C58.6334 18.223 59.3499 19.1892 59.9282 20.193C60.5064 21.1969 60.7955 22.276 60.7955 23.4304C60.7955 24.5095 60.5567 25.4506 60.079 26.2537C59.6265 27.0316 59.0231 27.6716 58.2688 28.1735C57.5146 28.6754 56.6598 29.0519 55.7044 29.3028C54.7742 29.5287 53.8314 29.6416 52.8761 29.6416C52.0213 29.6416 51.1288 29.5538 50.1985 29.3781C49.2683 29.2024 48.4135 28.9013 47.6342 28.4747C46.8799 28.048 46.2514 27.4959 45.7486 26.8183C45.2709 26.1156 45.032 25.2373 45.032 24.1833C45.032 23.5057 45.1577 22.8657 45.4092 22.2634C45.6606 21.636 46 21.0965 46.4274 20.6447C46.8799 20.193 47.3953 19.8417 47.9736 19.5907C48.5769 19.3147 49.2306 19.1766 49.9346 19.1766L50.1608 19.2143H50.274V19.4025Z" fill="#0A2A5E"/>
<path d="M77.6073 25.0114H77.7204C77.5947 25.7392 77.3181 26.3917 76.8907 26.9689C76.4633 27.521 75.948 27.9853 75.3446 28.3617C74.7412 28.7382 74.0749 29.0268 73.3458 29.2275C72.6419 29.4032 71.9505 29.491 71.2717 29.491C69.9895 29.491 68.8582 29.2275 67.8777 28.7005C66.9223 28.1735 66.1178 27.4708 65.4641 26.5925C64.8104 25.7141 64.3202 24.7228 63.9934 23.6186C63.6665 22.4893 63.5031 21.3474 63.5031 20.193C63.5031 18.9131 63.6917 17.696 64.0688 16.5416C64.4459 15.3621 64.9864 14.3331 65.6904 13.4548C66.4195 12.5513 67.312 11.8361 68.3679 11.3091C69.4238 10.7821 70.6432 10.5186 72.0259 10.5186C72.6796 10.5186 73.3333 10.5939 73.9869 10.7444C74.6658 10.8699 75.2691 11.0958 75.7971 11.422C76.3502 11.7483 76.8027 12.1749 77.1547 12.7019C77.5067 13.2289 77.6827 13.8689 77.6827 14.6217C77.6827 15.0735 77.5947 15.5126 77.4187 15.9393C77.2679 16.3659 77.0416 16.7423 76.7399 17.0686C76.4633 17.3697 76.1239 17.6207 75.7217 17.8215C75.3194 17.9971 74.8795 18.085 74.4018 18.085C74.2761 18.085 74.1378 18.085 73.9869 18.085C73.8361 18.085 73.6978 18.0599 73.5721 18.0097V17.8968C73.8487 17.7964 74.0749 17.6332 74.2509 17.4074C74.4269 17.1815 74.5526 16.918 74.628 16.6169C74.7286 16.3157 74.7915 16.0146 74.8166 15.7134C74.8669 15.4123 74.892 15.1362 74.892 14.8852C74.892 14.4335 74.8292 13.9567 74.7035 13.4548C74.6029 12.9529 74.4269 12.5011 74.1755 12.0996C73.9492 11.673 73.635 11.3342 73.2327 11.0832C72.8556 10.8072 72.3905 10.6691 71.8374 10.6691C70.9323 10.6691 70.1781 10.9954 69.5747 11.6479C68.9964 12.3004 68.5188 13.0909 68.1416 14.0194C67.7897 14.948 67.5383 15.9016 67.3874 16.8804C67.2617 17.8591 67.1988 18.6873 67.1988 19.3649C67.1988 20.2934 67.2994 21.2847 67.5005 22.3387C67.7017 23.3927 68.0411 24.3715 68.5188 25.2749C68.9964 26.1533 69.625 26.8811 70.4043 27.4583C71.1837 28.0355 72.1516 28.3241 73.3081 28.3241C73.7858 28.3241 74.2635 28.2488 74.7412 28.0982C75.2189 27.9225 75.6463 27.6841 76.0234 27.383C76.4256 27.0818 76.765 26.7305 77.0416 26.329C77.3181 25.9274 77.5067 25.4882 77.6073 25.0114Z" fill="#0A2A5E"/>
<path d="M85.1861 15.6005V26.1031C85.1861 26.7305 85.2238 27.2575 85.2993 27.6841C85.3998 28.0857 85.5632 28.4119 85.7895 28.6629C86.0158 28.8887 86.33 29.0519 86.7323 29.1522C87.1346 29.2526 87.6625 29.3028 88.3162 29.3028V29.4534H78.4735V29.3028C79.1271 29.3028 79.6551 29.2526 80.0574 29.1522C80.4596 29.0519 80.7739 28.8887 81.0001 28.6629C81.2264 28.4119 81.3773 28.0857 81.4527 27.6841C81.5532 27.2575 81.6035 26.7305 81.6035 26.1031V14.1324C81.6035 13.4297 81.5784 12.865 81.5281 12.4384C81.4778 11.9867 81.3521 11.6479 81.151 11.422C80.9499 11.1711 80.6356 11.0079 80.2082 10.9327C79.7808 10.8323 79.2026 10.7821 78.4735 10.7821V10.6315H82.9611C83.5645 10.6315 84.0171 10.7444 84.3188 10.9703C84.6205 11.1711 84.8342 11.4471 84.9599 11.7985C85.1107 12.1247 85.1861 12.5137 85.1861 12.9654C85.1861 13.392 85.1861 13.8312 85.1861 14.2829C85.3873 13.2038 85.8524 12.2753 86.5815 11.4973C87.3357 10.7193 88.2911 10.3304 89.4476 10.3304C90.0007 10.3304 90.5286 10.4182 91.0314 10.5939C91.5343 10.7444 91.9742 10.9828 92.3513 11.3091C92.7536 11.6353 93.0679 12.0243 93.2941 12.476C93.5204 12.9278 93.6335 13.4548 93.6335 14.0571C93.6335 14.6594 93.5078 15.2115 93.2564 15.7134C93.0302 16.2153 92.7159 16.642 92.3136 16.9933C91.9114 17.3195 91.4463 17.5831 90.9183 17.7838C90.3903 17.9595 89.8372 18.0473 89.259 18.0473C89.1333 18.0473 88.995 18.0473 88.8442 18.0473C88.7185 18.0473 88.5928 18.0348 88.467 18.0097V17.8591C88.819 17.8089 89.1207 17.6583 89.3721 17.4074C89.6235 17.1313 89.8247 16.8176 89.9755 16.4663C90.1264 16.1149 90.2395 15.7511 90.3149 15.3746C90.3903 14.9982 90.4281 14.6594 90.4281 14.3582C90.4281 13.5552 90.2269 12.8525 89.8247 12.2502C89.4475 11.6228 88.819 11.3091 87.9391 11.3091C87.4363 11.3091 87.0089 11.4597 86.6569 11.7608C86.3049 12.062 86.0158 12.4259 85.7895 12.8525C85.5884 13.2791 85.4375 13.7434 85.337 14.2453C85.2364 14.7472 85.1861 15.1989 85.1861 15.6005Z" fill="#0A2A5E"/>
<path d="M104.661 29.5663C103.303 29.5663 102.084 29.3154 101.003 28.8134C99.9216 28.3115 99.0039 27.6339 98.2497 26.7807C97.4955 25.9023 96.9172 24.8859 96.515 23.7315C96.1127 22.5771 95.9116 21.3474 95.9116 20.0424C95.9116 18.7375 96.1127 17.5078 96.515 16.3534C96.9172 15.1989 97.4955 14.1951 98.2497 13.3419C99.0039 12.4635 99.9216 11.7734 101.003 11.2714C102.084 10.7695 103.303 10.5186 104.661 10.5186C106.018 10.5186 107.238 10.7695 108.319 11.2714C109.4 11.7734 110.317 12.4635 111.072 13.3419C111.826 14.1951 112.404 15.1989 112.806 16.3534C113.209 17.5078 113.41 18.7375 113.41 20.0424C113.41 21.3474 113.209 22.5771 112.806 23.7315C112.404 24.8859 111.826 25.9023 111.072 26.7807C110.317 27.6339 109.4 28.3115 108.319 28.8134C107.238 29.3154 106.018 29.5663 104.661 29.5663ZM104.17 29.3781C104.9 29.3781 105.541 29.1899 106.094 28.8134C106.647 28.437 107.125 27.9476 107.527 27.3453C107.929 26.7179 108.268 26.0153 108.545 25.2373C108.847 24.4593 109.086 23.6813 109.261 22.9034C109.437 22.1003 109.563 21.3349 109.639 20.6071C109.714 19.8793 109.752 19.2519 109.752 18.7249C109.752 17.9971 109.689 17.169 109.563 16.2404C109.437 15.3119 109.199 14.4335 108.847 13.6054C108.52 12.7772 108.042 12.0871 107.414 11.535C106.81 10.9577 106.031 10.6691 105.076 10.6691C103.994 10.6691 103.089 11.0581 102.36 11.8361C101.656 12.6141 101.091 13.5552 100.663 14.6594C100.261 15.7385 99.9719 16.8678 99.7959 18.0473C99.6199 19.2268 99.5319 20.2181 99.5319 21.0212C99.5319 21.7239 99.5947 22.5646 99.7205 23.5433C99.8462 24.497 100.072 25.413 100.399 26.2913C100.751 27.1446 101.229 27.8724 101.832 28.4747C102.436 29.077 103.215 29.3781 104.17 29.3781Z" fill="#0A2A5E"/>
<path d="M121.955 29.7545L116.411 13.9065C116.16 13.2038 115.933 12.6517 115.732 12.2502C115.556 11.8236 115.343 11.5099 115.091 11.3091C114.865 11.0832 114.588 10.9452 114.262 10.895C113.96 10.8197 113.558 10.7821 113.055 10.7821V10.6315H140.056V10.7821C139.026 10.7821 138.183 11.1836 137.53 11.9867C136.901 12.7897 136.348 13.9065 135.87 15.337L131.194 29.7545H131.006L126.405 16.6169L122.143 29.7545H121.955ZM132.703 24.5221L135.682 15.337C136.159 13.9065 136.21 12.7897 135.833 11.9867C135.481 11.1836 134.576 10.7821 133.117 10.7821H131.797C130.842 10.7821 130.151 10.8699 129.723 11.0456L129.497 11.1585C129.17 11.3593 128.994 11.673 128.969 12.0996C128.944 12.5011 129.057 13.1034 129.308 13.9065L132.703 24.5221ZM123.652 24.5221L126.292 16.3157L125.462 13.9065C125.236 13.254 125.022 12.727 124.821 12.3255C124.645 11.9239 124.456 11.6102 124.255 11.3844C124.054 11.1585 123.815 11.0079 123.539 10.9327C123.262 10.8323 122.91 10.7821 122.483 10.7821C121.879 10.8072 121.376 10.8574 120.974 10.9327C120.597 11.0079 120.321 11.1585 120.145 11.3844C119.969 11.6102 119.893 11.9239 119.918 12.3255C119.943 12.727 120.057 13.254 120.258 13.9065L123.652 24.5221Z" fill="#0A2A5E"/>
<path d="M140.05 29.4534V29.3028C140.728 29.3028 141.269 29.2526 141.671 29.1522C142.073 29.0519 142.388 28.8762 142.614 28.6252C142.84 28.3743 142.991 28.048 143.066 27.6465C143.142 27.245 143.18 26.7305 143.18 26.1031V6.45304C143.18 5.82565 143.142 5.31118 143.066 4.90965C142.991 4.48302 142.84 4.15677 142.614 3.93091C142.388 3.67995 142.073 3.50428 141.671 3.4039C141.269 3.30351 140.728 3.25332 140.05 3.25332V3.10275H151.476C152.256 3.10275 152.997 3.21568 153.701 3.44154C154.43 3.6674 155.071 4.0062 155.624 4.45792C156.203 4.90965 156.655 5.46176 156.982 6.11425C157.334 6.76674 157.51 7.50707 157.51 8.33523C157.51 9.08811 157.372 9.7657 157.095 10.368C156.819 10.9452 156.442 11.4471 155.964 11.8737C155.511 12.3004 154.971 12.6517 154.342 12.9278C153.714 13.1787 153.06 13.367 152.381 13.4924C153.387 13.5175 154.254 13.781 154.983 14.2829C155.738 14.7849 156.354 15.4123 156.831 16.1651C157.309 16.918 157.661 17.7587 157.887 18.6873C158.139 19.5907 158.264 20.4816 158.264 21.36C158.264 22.4391 158.113 23.4806 157.812 24.4844C157.51 25.4632 157.058 26.3164 156.454 27.0442C155.876 27.772 155.147 28.3617 154.267 28.8134C153.387 29.2401 152.356 29.4534 151.174 29.4534H140.05ZM148.761 13.643V13.4924H149.025C149.804 13.4924 150.496 13.3544 151.099 13.0783C151.702 12.7772 152.205 12.3882 152.608 11.9114C153.035 11.4095 153.349 10.8448 153.55 10.2174C153.777 9.56493 153.89 8.87479 153.89 8.14701C153.89 7.51962 153.802 6.91732 153.626 6.34011C153.475 5.73781 153.223 5.2108 152.872 4.75907C152.545 4.30735 152.117 3.94346 151.589 3.6674C151.086 3.39135 150.483 3.25332 149.779 3.25332C149.1 3.25332 148.56 3.31606 148.158 3.44154C147.78 3.54192 147.479 3.73014 147.252 4.0062C147.051 4.25716 146.913 4.59595 146.838 5.02258C146.787 5.44921 146.762 5.96367 146.762 6.56597V26.1031C146.762 26.7305 146.8 27.245 146.875 27.6465C146.951 28.048 147.102 28.3743 147.328 28.6252C147.554 28.8762 147.868 29.0519 148.271 29.1522C148.673 29.2526 149.213 29.3028 149.892 29.3028C150.823 29.3028 151.589 29.0142 152.193 28.437C152.796 27.8598 153.274 27.1571 153.626 26.329C154.003 25.5008 154.254 24.6224 154.38 23.6939C154.531 22.7403 154.606 21.9121 154.606 21.2094C154.606 20.5569 154.543 19.7915 154.418 18.9131C154.317 18.0348 154.103 17.2066 153.777 16.4286C153.475 15.6507 153.047 14.9982 152.494 14.4712C151.966 13.9191 151.262 13.643 150.383 13.643H148.761Z" fill="#0A2A5E"/>
<path d="M167.096 17.8215C166.719 17.8968 166.355 17.9344 166.003 17.9344C165.098 17.9344 164.318 17.6583 163.665 17.1062C163.036 16.5541 162.722 15.8012 162.722 14.8476C162.722 14.0445 162.91 13.367 163.288 12.8148C163.69 12.2627 164.193 11.811 164.796 11.4597C165.399 11.1083 166.066 10.8574 166.795 10.7068C167.524 10.5311 168.215 10.4433 168.869 10.4433C171.333 10.4433 173.08 10.9828 174.111 12.062C175.167 13.116 175.695 14.8476 175.695 17.2568C175.695 18.3861 175.632 19.528 175.506 20.6824C175.406 21.8117 175.355 22.9536 175.355 24.108C175.355 24.9361 175.393 25.6765 175.468 26.329C175.569 26.9564 175.77 27.4959 176.072 27.9476C176.374 28.3743 176.801 28.7131 177.354 28.964C177.932 29.1899 178.687 29.3028 179.617 29.3028V29.4534H178.825C178.071 29.4534 177.279 29.4283 176.449 29.3781C175.644 29.3279 174.903 29.1773 174.224 28.9264C173.545 28.6754 172.967 28.2864 172.489 27.7594C172.012 27.2324 171.735 26.4795 171.66 25.5008C171.534 26.1533 171.295 26.743 170.943 27.2701C170.591 27.772 170.164 28.1986 169.661 28.5499C169.183 28.9013 168.643 29.1648 168.039 29.3405C167.436 29.5161 166.807 29.604 166.154 29.604C165.45 29.604 164.783 29.5036 164.155 29.3028C163.526 29.102 162.973 28.8134 162.496 28.437C162.018 28.0606 161.628 27.5837 161.327 27.0065C161.05 26.4293 160.912 25.7643 160.912 25.0114C160.912 23.8319 161.201 22.8155 161.779 21.9623C162.383 21.0839 163.137 20.3687 164.042 19.8166C164.972 19.2394 165.978 18.8253 167.059 18.5743C168.165 18.2983 169.221 18.1603 170.227 18.1603C170.528 18.1603 170.83 18.1728 171.132 18.1979C171.458 18.223 171.773 18.2606 172.074 18.3108V17.4074C172.074 16.8051 172.037 16.1149 171.961 15.337C171.911 14.559 171.76 13.8187 171.509 13.116C171.282 12.4133 170.93 11.8236 170.453 11.3467C169.975 10.8699 169.321 10.6315 168.492 10.6315C167.989 10.6315 167.549 10.757 167.172 11.0079C166.795 11.2589 166.468 11.5851 166.191 11.9867C165.94 12.3631 165.751 12.7897 165.626 13.2666C165.5 13.7434 165.437 14.1951 165.437 14.6217C165.437 15.224 165.563 15.8263 165.814 16.4286C166.066 17.0309 166.493 17.4576 167.096 17.7085V17.8215ZM172.074 18.4238C171.672 18.3485 171.27 18.3108 170.868 18.3108C169.988 18.3108 169.158 18.4614 168.379 18.7626C167.624 19.0637 166.958 19.4778 166.38 20.0048C165.827 20.5318 165.387 21.1718 165.06 21.9246C164.758 22.6775 164.607 23.5057 164.607 24.4091C164.607 24.9361 164.683 25.4632 164.834 25.9902C164.985 26.4921 165.198 26.9438 165.475 27.3453C165.777 27.7469 166.154 28.0731 166.606 28.3241C167.059 28.5499 167.587 28.6629 168.19 28.6629C168.718 28.6629 169.183 28.5499 169.585 28.3241C170.013 28.0982 170.365 27.7971 170.641 27.4206C170.918 27.0442 171.144 26.6301 171.32 26.1784C171.496 25.7016 171.597 25.2247 171.622 24.7479C171.697 23.6939 171.773 22.6399 171.848 21.5858C171.949 20.5318 172.024 19.4778 172.074 18.4238Z" fill="#0A2A5E"/>
<path d="M186.134 31.5991C185.958 32.1261 185.707 32.6908 185.38 33.2931C185.078 33.9205 184.714 34.4977 184.286 35.0247C183.884 35.5517 183.419 35.9909 182.891 36.3422C182.363 36.7186 181.772 36.9069 181.118 36.9069C180.641 36.9069 180.201 36.8065 179.799 36.6057C179.421 36.4049 179.095 36.1289 178.818 35.7775C178.567 35.4513 178.365 35.0749 178.215 34.6482C178.089 34.2216 178.026 33.7824 178.026 33.3307C178.026 32.4774 178.24 31.6618 178.667 30.8839H178.818C178.793 31.3356 178.906 31.7371 179.157 32.0885C179.409 32.4649 179.723 32.766 180.1 32.9919C180.477 33.2429 180.892 33.4311 181.345 33.5566C181.797 33.7071 182.212 33.7824 182.589 33.7824C183.343 33.7824 184.01 33.5817 184.588 33.1801C185.166 32.8037 185.619 32.2767 185.946 31.5991L186.624 29.7169L181.081 13.9065C180.905 13.3795 180.741 12.9152 180.59 12.5137C180.44 12.1122 180.251 11.7859 180.025 11.535C179.799 11.284 179.509 11.0958 179.157 10.9703C178.805 10.8448 178.328 10.7821 177.724 10.7821V10.6315H196.052V10.7821C195.449 10.7821 194.921 10.9327 194.468 11.2338C194.016 11.5099 193.626 11.8737 193.299 12.3255C192.972 12.7772 192.696 13.2791 192.47 13.8312C192.243 14.3582 192.042 14.8602 191.866 15.337L188.51 24.8609V24.8985L186.134 31.5991ZM188.434 24.5973L191.678 15.337C191.803 14.9856 191.904 14.6343 191.979 14.2829C192.055 13.9065 192.093 13.5426 192.093 13.1913C192.093 12.2627 191.803 11.6353 191.225 11.3091C190.647 10.9577 189.943 10.7821 189.113 10.7821C188.812 10.7821 188.409 10.7695 187.907 10.7444C187.404 10.7193 186.901 10.7444 186.398 10.8197C185.92 10.8699 185.493 11.0079 185.116 11.2338C184.764 11.4346 184.588 11.7734 184.588 12.2502C184.588 12.5262 184.613 12.8023 184.663 13.0783C184.739 13.3544 184.827 13.6305 184.927 13.9065L188.434 24.5973Z" fill="#0A2A5E"/>
<path d="M29.2236 5.07255C24.2255 4.98815 19.2429 3.5646 14.7232 0.90686C10.2077 3.5646 5.22501 4.98815 0.225868 5.07255C-0.792942 15.9288 2.4986 28.9919 14.7232 33.8452C26.9519 28.9919 30.2311 15.9288 29.2236 5.07255Z" fill="#0A2A5E"/>
<path d="M25.8186 7.96173C21.9941 7.89714 18.1815 6.80788 14.7232 4.77425C11.268 6.80788 7.45545 7.89714 3.63024 7.96173C2.85067 16.2686 5.36927 26.2642 14.7232 29.9778C24.0803 26.2642 26.5894 16.2686 25.8186 7.96173Z" fill="#DCE3FF"/>
<path d="M21.1075 13.6261L14.8226 10.0041L8.53795 13.6259L8.53737 13.6263V20.8709L14.8226 24.493L21.1079 20.8709V13.6263L21.1075 13.6261ZM20.5618 20.556L14.8227 23.8632V21.5486L11.0918 19.3989V15.0986L11.0922 15.0982L12.9735 16.1823L14.8227 15.1167L16.672 16.1825L16.6723 16.1827V18.3145L14.8227 19.3801V21.5486L18.5537 19.3989V15.0986L18.5533 15.0984L14.8227 12.9482L11.0922 15.0982L9.0841 13.9408L14.8226 10.6335L20.5612 13.9408L20.5618 13.9412V20.556Z" fill="#0049BE"/>
<path d="M12.9731 16.1827V18.3145L14.8227 19.3801L14.8227 17.2485L12.9735 16.1823L12.9731 16.1827Z" fill="#0049BE"/>
</svg>
